<svg width="17" height="16" viewBox="0 0 17 16" fill="none" xmlns="http://www.w3.org/2000/svg">
<path d="M16.9432 5.89639C16.8055 5.47516 16.4416 5.16726 16.0017 5.103L11.8227 4.49514L9.95253 0.708111C9.56055 -0.0899289 8.25268 -0.0899289 7.8607 0.708111L5.9905 4.49514L1.81135 5.10314C1.37152 5.16726 1.00757 5.4742 0.868664 5.89653C0.732217 6.31886 0.845284 6.78317 1.16384 7.09243L4.18906 10.0407L3.47511 14.2034C3.40046 14.6409 3.58011 15.0831 3.93832 15.3445C4.30117 15.6082 4.77477 15.6408 5.16798 15.4331L8.90606 13.4672L12.6441 15.4331C12.8145 15.5229 13.0024 15.5672 13.1879 15.5672C13.4293 15.5672 13.6709 15.4926 13.874 15.3444C14.2333 15.0831 14.4129 14.6408 14.3372 14.2033L13.6232 10.0405L16.6484 7.09229C16.9653 6.78193 17.0798 6.31872 16.9432 5.89639ZM11.5556 8.79911C11.2815 9.06627 11.1554 9.4536 11.2207 9.83163L11.6384 12.2688L9.44981 11.1184C9.27945 11.0286 9.09282 10.9843 8.90606 10.9843C8.71944 10.9843 8.53391 11.0286 8.36233 11.1184L6.17356 12.2688L6.59125 9.83163C6.6566 9.4536 6.53054 9.0675 6.25642 8.79911L4.48425 7.07247L6.93195 6.71658C7.31231 6.66176 7.64017 6.42263 7.81052 6.07837L8.90483 3.86171L9.99915 6.07837C10.1695 6.42249 10.4974 6.66176 10.8777 6.71658L13.3254 7.07247L11.5556 8.79911Z" fill="#2196F3"/>
</svg>
